ply
format ascii 1.0
comment Created by Blender 2.80 (sub 75) - www.blender.org, source file: 'golf club.blend'
element vertex 395
property float x
property float y
property float z
element face 778
property list uchar uint vertex_indices
end_header
0.028896 2.454453 0.042798
0.017272 2.506058 0.043495
0.024327 2.506675 0.042798
0.008002 2.452625 0.040732
-0.002819 2.504300 0.037378
0.003433 2.504847 0.040732
0.001750 2.452078 0.037378
-0.008299 2.503821 0.032863
-0.003730 2.451599 0.032863
-0.012796 2.503428 0.027362
-0.008227 2.451205 0.027362
-0.016138 2.503135 0.021086
-0.011569 2.450913 0.021086
-0.018195 2.502955 0.014277
-0.013627 2.450733 0.014277
-0.018890 2.502894 0.007195
-0.014321 2.450672 0.007195
-0.018195 2.502955 0.000113
-0.013627 2.450733 0.000113
-0.016138 2.503135 -0.006697
-0.011569 2.450913 -0.006697
-0.012796 2.503428 -0.012972
-0.008227 2.451205 -0.012973
-0.008299 2.503821 -0.018473
-0.003730 2.451599 -0.018473
-0.002819 2.504300 -0.022988
0.001750 2.452078 -0.022988
0.003433 2.504847 -0.026342
0.008002 2.452625 -0.026342
0.010217 2.505441 -0.028408
0.014786 2.453218 -0.028408
0.017272 2.506058 -0.029105
0.021841 2.453836 -0.029105
0.024327 2.506675 -0.028408
0.028896 2.454453 -0.028408
0.031111 2.507269 -0.026342
0.035679 2.455046 -0.026342
0.037363 2.507816 -0.022988
0.041931 2.455594 -0.022988
0.042842 2.508295 -0.018473
0.047411 2.456073 -0.018473
0.047340 2.508689 -0.012972
0.051909 2.456466 -0.012972
0.050681 2.508981 -0.006697
0.055250 2.456759 -0.006697
0.052739 2.509161 0.000113
0.057308 2.456939 0.000113
0.053434 2.509222 0.007195
0.058003 2.457000 0.007195
0.052739 2.509161 0.014277
0.057308 2.456939 0.014277
0.050681 2.508981 0.021086
0.055250 2.456759 0.021086
0.047340 2.508689 0.027362
0.051909 2.456466 0.027362
0.042842 2.508295 0.032863
0.047411 2.456073 0.032863
0.037363 2.507816 0.037378
0.041931 2.455594 0.037378
0.031111 2.507269 0.040732
0.035679 2.455046 0.040732
0.021841 2.453836 0.043495
0.010217 2.505441 0.042798
0.014786 2.453218 0.042798
0.042029 2.569392 -0.012972
0.020485 2.433461 0.022911
0.017491 2.433199 0.021999
0.014731 2.432958 0.020518
0.012312 2.432746 0.018525
0.010327 2.432572 0.016097
0.008852 2.432443 0.013327
0.007943 2.432364 0.010321
0.007637 2.432337 0.007195
0.007943 2.432364 0.004069
0.008852 2.432443 0.001063
0.010327 2.432572 -0.001707
0.012312 2.432746 -0.004136
0.014731 2.432958 -0.006128
0.017491 2.433199 -0.007609
0.020485 2.433461 -0.008521
0.023599 2.433734 -0.008829
0.026714 2.434006 -0.008521
0.029708 2.434268 -0.007609
0.032468 2.434510 -0.006128
0.034887 2.434721 -0.004136
0.036872 2.434895 -0.001707
0.038347 2.435024 0.001063
0.039256 2.435103 0.004069
0.039562 2.435130 0.007195
0.039256 2.435103 0.010321
0.038347 2.435024 0.013327
0.036872 2.434895 0.016097
0.034887 2.434721 0.018525
0.032468 2.434510 0.020518
0.029708 2.434268 0.021999
0.026714 2.434006 0.022911
0.023599 2.433734 0.023219
0.047428 2.569865 0.000113
0.034616 2.692608 -0.006697
0.045371 2.569685 -0.006697
-0.024201 2.563598 0.007195
-0.023506 2.563658 0.000113
-0.021448 2.563838 -0.006697
0.048123 2.569925 0.007195
-0.018107 2.564131 -0.012972
0.047428 2.569865 0.014277
-0.013609 2.564524 -0.018473
0.045371 2.569685 0.021086
-0.008130 2.565004 -0.022988
0.011961 2.566761 0.043495
0.042029 2.569392 0.027362
-0.001878 2.565551 -0.026342
0.004906 2.566144 0.042798
0.037532 2.568999 0.032863
0.004906 2.566144 -0.028408
-0.001878 2.565551 0.040732
0.032052 2.568519 0.037378
0.011961 2.566761 -0.029105
-0.008130 2.565004 0.037378
0.025800 2.567972 0.040732
0.019016 2.567379 -0.028408
-0.013609 2.564524 0.032863
0.019016 2.567379 0.042798
0.025800 2.567972 -0.026342
-0.018107 2.564131 0.027362
0.032052 2.568519 -0.022988
-0.021448 2.563838 0.021086
0.037532 2.568999 -0.018473
-0.023506 2.563658 0.014277
0.031274 2.692315 0.027362
0.024359 2.809852 0.021086
0.034616 2.692608 0.021086
-0.034261 2.686582 0.000113
0.036674 2.692788 0.000113
-0.032203 2.686762 -0.006697
0.037369 2.692848 0.007195
-0.028861 2.687054 -0.012972
0.036674 2.692788 0.014277
-0.024364 2.687448 -0.018473
-0.018884 2.687927 -0.022988
0.001207 2.689685 0.043495
-0.012632 2.688474 -0.026342
-0.005848 2.689067 0.042798
0.026777 2.691922 0.032863
-0.005848 2.689067 -0.028408
-0.012632 2.688474 0.040732
0.021297 2.691442 0.037378
0.001207 2.689685 -0.029105
-0.018884 2.687927 0.037378
0.015045 2.690895 0.040732
0.008262 2.690302 -0.028408
-0.024364 2.687448 0.032863
0.008262 2.690302 0.042798
0.015045 2.690896 -0.026342
-0.028861 2.687054 0.027362
0.021297 2.691442 -0.022988
-0.032203 2.686762 0.021086
0.026777 2.691922 -0.018473
-0.034261 2.686582 0.014277
0.031274 2.692315 -0.012972
-0.034956 2.686521 0.007195
-0.001996 2.807546 0.042798
-0.029142 2.805171 -0.022988
0.021017 2.809559 0.027362
-0.022890 2.805718 -0.026342
-0.009662 2.834121 0.016049
-0.020237 2.833196 0.008956
-0.013171 2.833814 -0.001659
0.016520 2.809166 0.032863
-0.009051 2.806929 -0.029105
-0.016106 2.806312 -0.028408
-0.022890 2.805718 0.040732
0.011040 2.808686 0.037378
-0.029142 2.805171 0.037378
0.004788 2.808140 0.040732
-0.001996 2.807546 -0.028408
-0.034621 2.804692 0.032863
0.004788 2.808140 -0.026342
-0.039119 2.804298 0.027362
-0.016106 2.806312 0.042798
0.011040 2.808686 -0.022988
-0.042460 2.804006 0.021086
0.016520 2.809166 -0.018473
-0.044518 2.803826 0.014277
0.021017 2.809559 -0.012972
-0.045213 2.803765 0.007195
0.024359 2.809852 -0.006697
-0.044518 2.803826 0.000113
0.026417 2.810032 0.000113
-0.042460 2.804006 -0.006697
0.027111 2.810093 0.007195
-0.039119 2.804298 -0.012972
0.026417 2.810032 0.014277
-0.034621 2.804692 -0.018473
-0.011416 2.833967 0.016222
-0.009051 2.806929 0.043495
-0.013171 2.833814 0.016049
-0.014858 2.833666 0.015535
-0.016413 2.833530 0.014701
-0.017775 2.833411 0.013578
-0.018894 2.833313 0.012210
-0.019725 2.833241 0.010650
-0.020409 2.833181 0.007195
-0.020237 2.833196 0.005434
-0.019725 2.833241 0.003740
-0.018894 2.833313 0.002180
-0.017775 2.833411 0.000812
-0.014858 2.833666 -0.001145
-0.016413 2.833530 -0.000311
-0.011416 2.833967 -0.001832
-0.009662 2.834121 -0.001659
-0.007975 2.834269 -0.001145
-0.006420 2.834404 -0.000311
-0.005057 2.834524 0.000812
-0.003108 2.834694 0.003740
-0.003939 2.834621 0.002180
-0.002596 2.834739 0.005434
-0.002424 2.834754 0.007195
-0.002596 2.834739 0.008956
-0.003108 2.834694 0.010649
-0.003939 2.834621 0.012210
-0.005057 2.834524 0.013578
-0.007975 2.834269 0.015535
-0.006420 2.834404 0.014701
0.238912 0.090653 -0.018087
0.154203 1.113351 -0.015549
0.243641 0.091067 -0.015549
0.123806 1.110691 0.030118
0.033647 2.093453 0.026703
0.119660 1.110329 0.026703
0.251189 0.091727 0.022541
0.158349 1.113714 0.026703
0.247787 0.091430 0.026703
0.209098 0.088045 0.026703
0.116258 1.110031 0.022541
0.205696 0.087747 0.022541
0.213244 0.088408 -0.015549
0.128535 1.111105 -0.018087
0.217974 0.088821 -0.018087
0.255274 0.092085 0.001927
0.166362 1.114415 0.007284
0.255800 0.092131 0.007284
0.228443 0.089737 0.034746
0.133667 1.111554 0.034218
0.223105 0.089270 0.034218
0.201611 0.087390 0.001927
0.113730 1.109810 -0.003225
0.203168 0.087526 -0.003225
0.158349 1.113714 -0.012134
0.247787 0.091430 -0.012134
0.154203 1.113351 0.030118
0.243641 0.091067 0.030118
0.113730 1.109810 0.017793
0.203168 0.087526 0.017793
0.133667 1.111554 -0.019650
0.223106 0.089270 -0.019650
0.165836 1.114369 0.012642
0.255274 0.092085 0.012642
0.128535 1.111105 0.032656
0.217973 0.088821 0.032655
0.116258 1.110031 -0.007973
0.205696 0.087747 -0.007973
0.161751 1.114011 -0.007973
0.251189 0.091727 -0.007973
0.149474 1.112937 0.032656
0.238912 0.090653 0.032655
0.112173 1.109674 0.012642
0.201611 0.087390 0.012642
0.228443 0.089737 -0.020177
0.144342 1.112488 -0.019650
0.233780 0.090204 -0.019650
0.139004 1.112021 -0.020177
0.164279 1.114232 0.017793
0.253717 0.091949 0.017793
0.213244 0.088408 0.030118
0.119660 1.110329 -0.012134
0.209098 0.088045 -0.012134
0.164279 1.114232 -0.003225
0.253717 0.091949 -0.003225
0.144341 1.112488 0.034218
0.233780 0.090204 0.034218
0.111647 1.109628 0.007284
0.201085 0.087344 0.007284
0.149474 1.112937 -0.018087
0.161751 1.114011 0.022541
0.123806 1.110691 -0.015549
0.165836 1.114369 0.001927
0.139004 1.112021 0.034746
0.112173 1.109674 0.001927
0.079822 2.097492 0.001927
0.049174 2.453841 0.007284
0.080348 2.097538 0.007284
0.030244 2.093155 0.022541
0.027716 2.092934 0.017794
0.079822 2.097492 0.012642
0.026160 2.092798 0.012642
0.078266 2.097356 0.017794
0.025634 2.092752 0.007284
0.075738 2.097135 0.022541
0.026160 2.092798 0.001927
0.072335 2.096838 0.026703
0.027716 2.092934 -0.003225
0.068190 2.096475 0.030118
0.030244 2.093155 -0.007972
0.063460 2.096061 0.032656
0.058328 2.095612 -0.019650
0.033647 2.093453 -0.012134
0.058328 2.095612 0.034218
0.063460 2.096061 -0.018087
0.037792 2.093815 -0.015549
0.052991 2.095145 0.034746
0.068190 2.096475 -0.015549
0.042522 2.094229 -0.018087
0.047654 2.094678 0.034218
0.072335 2.096838 -0.012134
0.047654 2.094678 -0.019650
0.042522 2.094229 0.032656
0.075738 2.097135 -0.007972
0.052991 2.095145 -0.020177
0.037792 2.093815 0.030118
0.078266 2.097356 -0.003225
0.011348 2.450532 0.032656
0.047092 2.453659 0.017794
0.032286 2.452364 -0.018087
-0.000930 2.449458 0.022541
-0.003458 2.449237 0.017794
0.048648 2.453795 0.012642
-0.005015 2.449100 0.012642
-0.005540 2.449054 0.007284
0.044563 2.453438 0.022541
-0.005015 2.449100 0.001927
0.041161 2.453140 0.026703
-0.003458 2.449237 -0.003225
0.037016 2.452778 0.030118
-0.000930 2.449458 -0.007972
0.032286 2.452364 0.032656
0.027154 2.451915 -0.019649
0.002472 2.449756 -0.012134
0.027154 2.451915 0.034218
0.006618 2.450118 -0.015549
0.021817 2.451448 0.034746
0.037016 2.452778 -0.015549
0.011348 2.450532 -0.018087
0.016480 2.450981 0.034218
0.041161 2.453140 -0.012134
0.016480 2.450981 -0.019650
0.044563 2.453438 -0.007972
0.021817 2.451448 -0.020177
0.006618 2.450118 0.030118
0.047092 2.453659 -0.003225
0.002472 2.449756 0.026703
0.048648 2.453795 0.001927
0.607173 0.269826 -0.037572
0.308402 0.243752 -0.085930
0.312397 0.269826 -0.036961
0.176104 0.257539 0.046191
0.160551 0.087014 -0.012113
0.160551 0.087014 0.050383
0.348794 0.005621 -0.012132
0.562415 0.003651 -0.064998
0.574115 0.005622 -0.012132
0.716423 0.087014 -0.020521
0.699802 0.258446 0.031706
0.716423 0.087014 0.037232
0.563284 0.087014 0.065261
0.563284 0.264545 0.065261
0.508178 0.005622 0.040911
0.296942 0.005621 0.040911
0.241836 0.087014 0.065261
0.293588 0.005622 -0.002027
0.179901 0.086116 -0.064371
0.286044 0.005830 -0.053865
0.703636 0.258446 -0.020718
0.716423 0.256039 -0.018003
0.710084 0.243752 -0.068702
0.595383 0.005830 -0.061458
0.583386 0.005621 -0.010435
0.583386 0.005621 0.027145
0.293588 0.005622 0.040297
0.500466 0.337841 0.041995
0.589309 0.337841 0.025839
0.558647 0.337841 -0.014386
0.285726 0.337841 0.000094
0.176009 0.258446 -0.012523
0.595700 0.337841 -0.007959
0.359810 0.337841 -0.013571
0.280700 0.337841 0.037256
0.241836 0.264545 0.065261
0.311618 0.337841 0.043270
0.173456 0.239656 -0.064356
0.312408 0.085498 -0.088175
0.611168 0.243752 -0.086541
0.607162 0.085498 -0.088786
0.700413 0.086116 -0.072167
0.357155 0.003651 -0.064386
3 0 1 2
3 3 4 5
3 6 7 4
3 8 9 7
3 10 11 9
3 12 13 11
3 14 15 13
3 16 17 15
3 18 19 17
3 20 21 19
3 22 23 21
3 24 25 23
3 26 27 25
3 28 29 27
3 30 31 29
3 32 33 31
3 34 35 33
3 36 37 35
3 38 39 37
3 40 41 39
3 42 43 41
3 44 45 43
3 46 47 45
3 48 49 47
3 50 51 49
3 52 53 51
3 54 55 53
3 56 57 55
3 58 59 57
3 60 2 59
3 61 62 1
3 63 5 62
3 43 64 41
3 61 65 63
3 63 66 3
3 3 67 6
3 8 67 68
3 10 68 69
3 12 69 70
3 12 71 14
3 16 71 72
3 18 72 73
3 18 74 20
3 20 75 22
3 24 75 76
3 26 76 77
3 26 78 28
3 28 79 30
3 30 80 32
3 34 80 81
3 34 82 36
3 36 83 38
3 38 84 40
3 40 85 42
3 42 86 44
3 44 87 46
3 46 88 48
3 50 88 89
3 50 90 52
3 52 91 54
3 56 91 92
3 56 93 58
3 58 94 60
3 0 94 95
3 0 96 61
3 66 90 82
3 97 98 99
3 17 100 15
3 45 99 43
3 19 101 17
3 47 97 45
3 21 102 19
3 49 103 47
3 23 104 21
3 51 105 49
3 25 106 23
3 53 107 51
3 27 108 25
3 62 109 1
3 55 110 53
3 29 111 27
3 5 112 62
3 57 113 55
3 31 114 29
3 4 115 5
3 59 116 57
3 33 117 31
3 7 118 4
3 2 119 59
3 35 120 33
3 9 121 7
3 1 122 2
3 37 123 35
3 11 124 9
3 39 125 37
3 13 126 11
3 41 127 39
3 15 128 13
3 129 130 131
3 102 132 101
3 103 133 97
3 104 134 102
3 105 135 103
3 106 136 104
3 107 137 105
3 108 138 106
3 110 131 107
3 111 139 108
3 112 140 109
3 113 129 110
3 114 141 111
3 115 142 112
3 116 143 113
3 117 144 114
3 118 145 115
3 119 146 116
3 120 147 117
3 121 148 118
3 122 149 119
3 123 150 120
3 124 151 121
3 109 152 122
3 125 153 123
3 126 154 124
3 127 155 125
3 128 156 126
3 64 157 127
3 100 158 128
3 99 159 64
3 101 160 100
3 140 161 152
3 141 162 139
3 143 163 129
3 144 164 141
3 165 166 167
3 146 168 143
3 144 169 170
3 148 171 145
3 149 172 146
3 150 169 147
3 151 173 148
3 152 174 149
3 153 175 150
3 154 176 151
3 155 177 153
3 156 178 154
3 145 179 142
3 157 180 155
3 158 181 156
3 159 182 157
3 160 183 158
3 98 184 159
3 132 185 160
3 133 186 98
3 134 187 132
3 135 188 133
3 136 189 134
3 137 190 135
3 138 191 136
3 131 192 137
3 139 193 138
3 179 194 195
3 171 196 179
3 173 197 171
3 176 198 173
3 178 199 176
3 181 200 178
3 183 201 181
3 183 202 166
3 187 202 185
3 189 203 187
3 191 204 189
3 193 205 191
3 162 206 193
3 162 207 208
3 164 167 207
3 170 209 167
3 169 210 209
3 175 211 210
3 177 212 211
3 180 213 212
3 184 213 182
3 184 214 215
3 186 216 214
3 190 216 188
3 192 217 190
3 130 218 192
3 163 219 130
3 168 220 163
3 172 221 168
3 172 222 223
3 161 222 174
3 195 165 161
3 142 195 140
3 224 225 226
3 227 228 229
3 230 231 232
3 233 234 235
3 236 237 238
3 239 240 241
3 242 243 244
3 245 246 247
3 226 248 249
3 232 250 251
3 235 252 253
3 238 254 255
3 241 256 257
3 244 258 259
3 247 260 261
3 249 262 263
3 251 264 265
3 253 266 267
3 268 269 270
3 255 271 268
3 257 272 273
3 259 227 274
3 261 275 276
3 263 277 278
3 265 279 280
3 267 281 282
3 270 283 224
3 273 284 230
3 274 229 233
3 276 285 236
3 278 286 239
3 280 287 242
3 282 288 245
3 289 290 291
3 277 289 286
3 229 292 234
3 286 291 240
3 234 293 252
3 240 294 256
3 252 295 266
3 256 296 272
3 266 297 281
3 272 298 284
3 281 299 288
3 284 300 231
3 288 301 246
3 231 302 250
3 246 303 260
3 250 304 264
3 271 305 269
3 260 306 275
3 279 304 307
3 269 308 283
3 275 309 285
3 287 307 310
3 283 311 225
3 285 312 237
3 243 310 313
3 225 314 248
3 237 315 254
3 258 313 316
3 248 317 262
3 254 318 271
3 258 319 227
3 262 320 277
3 280 267 255
3 321 322 323
3 293 324 325
3 291 326 294
3 295 325 327
3 296 326 322
3 295 328 297
3 298 322 329
3 297 330 299
3 300 329 331
3 299 332 301
3 302 331 333
3 301 334 303
3 304 333 335
3 318 336 305
3 303 337 306
3 307 335 338
3 305 323 308
3 306 339 309
3 310 338 340
3 308 341 311
3 309 342 312
3 313 340 343
3 311 344 314
3 312 345 315
3 316 343 321
3 314 346 317
3 315 347 318
3 319 321 348
3 317 349 320
3 228 348 350
3 320 351 289
3 292 350 324
3 352 353 354
3 355 356 357
3 358 359 360
3 361 362 363
3 364 362 365
3 366 367 358
3 368 355 357
3 365 368 364
3 369 370 371
3 372 373 374
3 360 375 376
3 377 364 366
3 376 363 377
3 378 368 357
3 367 364 368
3 378 356 369
3 379 380 381
3 382 354 383
3 384 352 381
3 381 354 385
3 380 365 362
3 384 362 372
3 386 387 388
3 388 365 379
3 386 383 355
3 356 389 370
3 390 391 392
3 393 391 374
3 371 390 394
3 375 392 393
3 390 359 394
3 353 370 389
3 354 389 383
3 352 374 391
3 361 375 393
3 361 374 372
3 358 371 394
3 0 61 1
3 3 6 4
3 6 8 7
3 8 10 9
3 10 12 11
3 12 14 13
3 14 16 15
3 16 18 17
3 18 20 19
3 20 22 21
3 22 24 23
3 24 26 25
3 26 28 27
3 28 30 29
3 30 32 31
3 32 34 33
3 34 36 35
3 36 38 37
3 38 40 39
3 40 42 41
3 42 44 43
3 44 46 45
3 46 48 47
3 48 50 49
3 50 52 51
3 52 54 53
3 54 56 55
3 56 58 57
3 58 60 59
3 60 0 2
3 61 63 62
3 63 3 5
3 43 99 64
3 61 96 65
3 63 65 66
3 3 66 67
3 8 6 67
3 10 8 68
3 12 10 69
3 12 70 71
3 16 14 71
3 18 16 72
3 18 73 74
3 20 74 75
3 24 22 75
3 26 24 76
3 26 77 78
3 28 78 79
3 30 79 80
3 34 32 80
3 34 81 82
3 36 82 83
3 38 83 84
3 40 84 85
3 42 85 86
3 44 86 87
3 46 87 88
3 50 48 88
3 50 89 90
3 52 90 91
3 56 54 91
3 56 92 93
3 58 93 94
3 0 60 94
3 0 95 96
3 66 65 96
3 96 95 66
3 95 94 66
3 94 93 92
3 92 91 94
3 91 90 94
3 90 89 88
3 88 87 86
3 86 85 82
3 85 84 82
3 84 83 82
3 82 81 80
3 80 79 82
3 79 78 82
3 78 77 76
3 76 75 74
3 74 73 72
3 72 71 70
3 70 69 66
3 69 68 66
3 68 67 66
3 90 88 82
3 88 86 82
3 78 76 82
3 76 74 82
3 74 72 70
3 66 94 90
3 74 70 82
3 70 66 82
3 97 133 98
3 17 101 100
3 45 97 99
3 19 102 101
3 47 103 97
3 21 104 102
3 49 105 103
3 23 106 104
3 51 107 105
3 25 108 106
3 53 110 107
3 27 111 108
3 62 112 109
3 55 113 110
3 29 114 111
3 5 115 112
3 57 116 113
3 31 117 114
3 4 118 115
3 59 119 116
3 33 120 117
3 7 121 118
3 2 122 119
3 35 123 120
3 9 124 121
3 1 109 122
3 37 125 123
3 11 126 124
3 39 127 125
3 13 128 126
3 41 64 127
3 15 100 128
3 129 163 130
3 102 134 132
3 103 135 133
3 104 136 134
3 105 137 135
3 106 138 136
3 107 131 137
3 108 139 138
3 110 129 131
3 111 141 139
3 112 142 140
3 113 143 129
3 114 144 141
3 115 145 142
3 116 146 143
3 117 147 144
3 118 148 145
3 119 149 146
3 120 150 147
3 121 151 148
3 122 152 149
3 123 153 150
3 124 154 151
3 109 140 152
3 125 155 153
3 126 156 154
3 127 157 155
3 128 158 156
3 64 159 157
3 100 160 158
3 99 98 159
3 101 132 160
3 140 195 161
3 141 164 162
3 143 168 163
3 144 170 164
3 165 194 196
3 196 197 198
3 198 199 200
3 200 201 166
3 166 202 205
3 202 203 205
3 203 204 205
3 205 206 167
3 206 208 167
3 208 207 167
3 167 209 210
3 210 211 167
3 211 212 167
3 212 213 215
3 215 214 216
3 216 217 218
3 218 219 216
3 219 220 216
3 220 221 223
3 223 222 165
3 165 196 166
3 196 198 166
3 198 200 166
3 212 215 167
3 215 216 167
3 220 223 165
3 166 205 167
3 216 220 167
3 220 165 167
3 146 172 168
3 144 147 169
3 148 173 171
3 149 174 172
3 150 175 169
3 151 176 173
3 152 161 174
3 153 177 175
3 154 178 176
3 155 180 177
3 156 181 178
3 145 171 179
3 157 182 180
3 158 183 181
3 159 184 182
3 160 185 183
3 98 186 184
3 132 187 185
3 133 188 186
3 134 189 187
3 135 190 188
3 136 191 189
3 137 192 190
3 138 193 191
3 131 130 192
3 139 162 193
3 179 196 194
3 171 197 196
3 173 198 197
3 176 199 198
3 178 200 199
3 181 201 200
3 183 166 201
3 183 185 202
3 187 203 202
3 189 204 203
3 191 205 204
3 193 206 205
3 162 208 206
3 162 164 207
3 164 170 167
3 170 169 209
3 169 175 210
3 175 177 211
3 177 180 212
3 180 182 213
3 184 215 213
3 184 186 214
3 186 188 216
3 190 217 216
3 192 218 217
3 130 219 218
3 163 220 219
3 168 221 220
3 172 223 221
3 172 174 222
3 161 165 222
3 195 194 165
3 142 179 195
3 224 283 225
3 227 319 228
3 230 284 231
3 233 229 234
3 236 285 237
3 239 286 240
3 242 287 243
3 245 288 246
3 226 225 248
3 232 231 250
3 235 234 252
3 238 237 254
3 241 240 256
3 244 243 258
3 247 246 260
3 249 248 262
3 251 250 264
3 253 252 266
3 268 271 269
3 255 254 271
3 257 256 272
3 259 258 227
3 261 260 275
3 263 262 277
3 265 264 279
3 267 266 281
3 270 269 283
3 273 272 284
3 274 227 229
3 276 275 285
3 278 277 286
3 280 279 287
3 282 281 288
3 289 351 290
3 277 320 289
3 229 228 292
3 286 289 291
3 234 292 293
3 240 291 294
3 252 293 295
3 256 294 296
3 266 295 297
3 272 296 298
3 281 297 299
3 284 298 300
3 288 299 301
3 231 300 302
3 246 301 303
3 250 302 304
3 271 318 305
3 260 303 306
3 279 264 304
3 269 305 308
3 275 306 309
3 287 279 307
3 283 308 311
3 285 309 312
3 243 287 310
3 225 311 314
3 237 312 315
3 258 243 313
3 248 314 317
3 254 315 318
3 258 316 319
3 262 317 320
3 255 268 270
3 270 224 226
3 226 249 239
3 249 263 239
3 263 278 239
3 239 241 257
3 257 273 239
3 273 230 239
3 230 232 280
3 232 251 280
3 251 265 280
3 280 242 244
3 244 259 280
3 259 274 280
3 274 233 235
3 235 253 274
3 253 267 274
3 267 282 245
3 245 247 261
3 261 276 255
3 276 236 255
3 236 238 255
3 255 270 239
3 270 226 239
3 267 245 261
3 239 230 280
3 280 274 267
3 267 261 255
3 255 239 280
3 323 336 347
3 347 345 323
3 345 342 323
3 342 339 337
3 337 334 332
3 332 330 328
3 328 327 325
3 325 324 350
3 350 348 325
3 348 321 325
3 321 343 340
3 340 338 321
3 338 335 321
3 335 333 331
3 331 329 322
3 322 326 290
3 290 351 349
3 349 346 344
3 344 341 323
3 342 337 323
3 337 332 323
3 332 328 321
3 328 325 321
3 335 331 321
3 331 322 321
3 322 290 349
3 349 344 322
3 344 323 322
3 323 332 321
3 293 292 324
3 291 290 326
3 295 293 325
3 296 294 326
3 295 327 328
3 298 296 322
3 297 328 330
3 300 298 329
3 299 330 332
3 302 300 331
3 301 332 334
3 304 302 333
3 318 347 336
3 303 334 337
3 307 304 335
3 305 336 323
3 306 337 339
3 310 307 338
3 308 323 341
3 309 339 342
3 313 310 340
3 311 341 344
3 312 342 345
3 316 313 343
3 314 344 346
3 315 345 347
3 319 316 321
3 317 346 349
3 228 319 348
3 320 349 351
3 292 228 350
3 352 391 353
3 355 383 356
3 358 394 359
3 361 372 362
3 364 363 362
3 378 369 367
3 369 358 367
3 358 360 366
3 360 376 377
3 366 360 377
3 368 387 355
3 365 387 368
3 369 356 370
3 372 362 373
3 360 359 375
3 377 363 364
3 376 361 363
3 378 367 368
3 367 366 364
3 378 357 356
3 380 384 381
3 381 385 379
3 385 382 388
3 379 385 388
3 382 386 388
3 382 385 354
3 384 372 352
3 381 352 354
3 380 379 365
3 384 380 362
3 386 355 387
3 388 387 365
3 386 382 383
3 356 383 389
3 390 353 391
3 393 392 391
3 371 370 390
3 375 359 392
3 390 392 359
3 353 390 370
3 354 353 389
3 352 372 374
3 361 376 375
3 361 393 374
3 358 369 371
