ply
format ascii 1.0
comment Created by Blender 2.80 (sub 75) - www.blender.org, source file: 'golfpole.blend'
element vertex 168
property float x
property float y
property float z
element face 328
property list uchar uint vertex_indices
end_header
-0.000000 0.527402 -0.258542
0.050439 0.010319 -0.253574
-0.000000 0.010319 -0.258542
0.050439 0.527402 -0.253574
0.098940 0.010319 -0.238861
0.098940 0.527402 -0.238861
0.143638 0.010319 -0.214970
0.143638 0.527402 -0.214970
0.182817 0.010319 -0.182817
0.182817 0.527402 -0.182817
0.214969 0.010319 -0.143638
0.214969 0.527402 -0.143638
0.238861 0.010319 -0.098940
0.238861 0.527402 -0.098940
0.253574 0.010319 -0.050439
0.253574 0.527402 -0.050439
0.258542 0.010319 -0.000000
0.258542 0.527402 -0.000000
0.253574 0.010319 0.050439
0.253574 0.527402 0.050439
0.238861 0.010319 0.098940
0.238861 0.527402 0.098940
0.214970 0.010319 0.143638
0.214970 0.527402 0.143638
0.182817 0.010319 0.182817
0.182817 0.527402 0.182817
0.143638 0.010319 0.214969
0.143638 0.527402 0.214969
0.098940 0.010319 0.238861
0.098940 0.527402 0.238861
0.050439 0.010319 0.253574
0.050439 0.527402 0.253574
-0.000000 0.010319 0.258542
-0.000000 0.527402 0.258542
-0.050439 0.010319 0.253574
-0.050439 0.527402 0.253574
-0.098940 0.010319 0.238861
-0.098940 0.527402 0.238861
-0.143638 0.010319 0.214969
-0.143638 0.527402 0.214969
-0.182817 0.010319 0.182816
-0.182817 0.527402 0.182816
-0.214970 0.010319 0.143638
-0.214970 0.527402 0.143638
-0.238861 0.010319 0.098939
-0.238861 0.527402 0.098939
-0.253574 0.010319 0.050439
-0.253574 0.527402 0.050439
-0.258542 0.010319 -0.000000
-0.258542 0.527402 -0.000000
-0.253574 0.010319 -0.050439
-0.253574 0.527402 -0.050439
-0.238861 0.010319 -0.098940
-0.238861 0.527402 -0.098940
-0.214969 0.010319 -0.143638
-0.214969 0.527402 -0.143638
-0.182816 0.010319 -0.182817
-0.182816 0.527402 -0.182817
-0.143638 0.010319 -0.214970
-0.143638 0.527402 -0.214970
-0.098939 0.010319 -0.238861
0.258541 7.172816 -0.000000
-0.098939 0.527402 -0.238861
-0.050439 0.010319 -0.253574
-0.050439 0.527402 -0.253574
0.253562 13.811943 0.050439
0.253573 7.172816 0.050439
-0.050439 7.172816 0.253574
-0.238862 7.172816 -0.098940
0.182816 7.172816 -0.182817
0.143638 7.172816 0.214969
-0.238862 7.172816 0.098939
-0.050439 7.172816 -0.253574
-0.098940 7.172816 0.238861
-0.214970 7.172816 -0.143638
0.214969 7.172816 -0.143638
0.098939 7.172816 0.238861
-0.253574 7.172816 0.050439
0.050439 7.172816 -0.253574
-0.000000 7.172816 -0.258542
0.238861 7.172816 0.098940
-0.143639 7.172816 0.214969
-0.182817 7.172816 -0.182817
0.238861 7.172816 -0.098940
0.050438 7.172816 0.253574
-0.258542 7.172816 -0.000000
0.098939 7.172816 -0.238861
0.214969 7.172816 0.143638
-0.182817 7.172816 0.182816
-0.143638 7.172816 -0.214970
0.253573 7.172816 -0.050439
-0.000001 7.172816 0.258542
-0.253574 7.172816 -0.050439
0.143638 7.172816 -0.214970
0.182816 7.172816 0.182817
-0.214970 7.172816 0.143638
-0.098940 7.172816 -0.238861
-0.000012 13.811943 -0.258542
-0.253585 13.811943 0.050439
0.238850 13.811943 0.098940
-0.258553 13.811943 -0.000000
0.214958 13.811943 0.143638
-0.253585 13.811943 -0.050439
0.182805 13.811943 0.182817
-0.238873 13.811943 -0.098940
0.143626 13.811943 0.214969
-0.214981 13.811943 -0.143638
0.098928 13.811943 0.238861
-0.182828 13.811943 -0.182817
0.050427 13.811943 0.253574
0.109700 13.951061 -0.045444
0.045432 13.951061 -0.109712
-0.045456 13.951061 0.109712
-0.143649 13.811943 -0.214970
-0.000012 13.811943 0.258542
0.143626 13.811943 -0.214970
-0.098951 13.811943 -0.238861
-0.050451 13.811943 0.253574
0.182805 13.811943 -0.182817
-0.050450 13.811943 -0.253574
-0.098951 13.811943 0.238861
0.214958 13.811943 -0.143638
-0.143650 13.811943 0.214969
0.238850 13.811943 -0.098940
0.098928 13.811943 -0.238861
-0.182828 13.811943 0.182816
0.253562 13.811943 -0.050439
-0.214981 13.811943 0.143638
0.258530 13.811943 -0.000000
-0.238873 13.811943 0.098939
0.023155 13.951061 -0.116469
0.050427 13.811943 -0.253574
0.065963 13.951061 -0.098738
0.083958 13.951061 -0.083970
0.098726 13.951061 -0.065975
0.116458 13.951061 -0.023167
0.118739 13.951061 0.000000
0.116458 13.951061 0.023167
0.109700 13.951061 0.045444
0.098726 13.951061 0.065975
0.083958 13.951061 0.083970
0.065963 13.951061 0.098738
0.045432 13.951061 0.109712
0.023155 13.951061 0.116469
-0.000012 13.951061 0.118751
-0.023179 13.951061 0.116469
-0.065987 13.951061 0.098738
-0.083982 13.951061 0.083970
-0.098750 13.951061 0.065975
-0.109724 13.951061 0.045444
-0.116481 13.951061 0.023167
-0.118763 13.951061 -0.000000
-0.116481 13.951061 -0.023167
-0.109724 13.951061 -0.045444
-0.098750 13.951061 -0.065975
-0.083982 13.951061 -0.083970
-0.065986 13.951061 -0.098738
-0.045456 13.951061 -0.109712
-0.023179 13.951061 -0.116470
-0.000012 13.951061 -0.118751
-3.179326 12.064441 0.017703
-0.179814 12.064441 -0.001241
-3.179326 12.064441 -0.001241
-0.179814 12.064441 0.017702
-0.179814 13.790425 -0.001242
-0.179814 13.790425 0.017702
-3.179326 13.790425 -0.001241
-3.179326 13.790425 0.017703
3 0 1 2
3 3 4 1
3 5 6 4
3 7 8 6
3 9 10 8
3 11 12 10
3 13 14 12
3 15 16 14
3 17 18 16
3 19 20 18
3 21 22 20
3 23 24 22
3 25 26 24
3 27 28 26
3 29 30 28
3 31 32 30
3 33 34 32
3 35 36 34
3 37 38 36
3 39 40 38
3 41 42 40
3 43 44 42
3 45 46 44
3 47 48 46
3 49 50 48
3 51 52 50
3 53 54 52
3 55 56 54
3 57 58 56
3 59 60 58
3 15 61 17
3 62 63 60
3 64 2 63
3 14 30 46
3 61 65 66
3 33 67 35
3 51 68 53
3 7 69 9
3 25 70 27
3 43 71 45
3 62 72 64
3 17 66 19
3 35 73 37
3 53 74 55
3 9 75 11
3 27 76 29
3 45 77 47
3 0 78 3
3 64 79 0
3 19 80 21
3 37 81 39
3 55 82 57
3 11 83 13
3 29 84 31
3 47 85 49
3 3 86 5
3 21 87 23
3 39 88 41
3 57 89 59
3 13 90 15
3 31 91 33
3 49 92 51
3 5 93 7
3 23 94 25
3 41 95 43
3 59 96 62
3 72 97 79
3 71 98 77
3 66 99 80
3 77 100 85
3 87 99 101
3 85 102 92
3 94 101 103
3 92 104 68
3 70 103 105
3 68 106 74
3 76 105 107
3 74 108 82
3 84 107 109
3 110 111 112
3 82 113 89
3 91 109 114
3 86 115 93
3 89 116 96
3 67 114 117
3 93 118 69
3 96 119 72
3 73 117 120
3 69 121 75
3 81 120 122
3 75 123 83
3 78 124 86
3 88 122 125
3 83 126 90
3 95 125 127
3 90 128 61
3 71 127 129
3 97 130 131
3 131 111 124
3 124 132 115
3 115 133 118
3 118 134 121
3 121 110 123
3 123 135 126
3 126 136 128
3 65 136 137
3 99 137 138
3 101 138 139
3 103 139 140
3 105 140 141
3 107 141 142
3 109 142 143
3 114 143 144
3 117 144 145
3 120 145 112
3 122 112 146
3 125 146 147
3 127 147 148
3 129 148 149
3 98 149 150
3 100 150 151
3 100 152 102
3 102 153 104
3 104 154 106
3 106 155 108
3 108 156 113
3 113 157 116
3 116 158 119
3 119 159 97
3 79 131 78
3 160 161 162
3 163 164 161
3 165 166 164
3 167 162 166
3 164 162 161
3 163 167 165
3 0 3 1
3 3 5 4
3 5 7 6
3 7 9 8
3 9 11 10
3 11 13 12
3 13 15 14
3 15 17 16
3 17 19 18
3 19 21 20
3 21 23 22
3 23 25 24
3 25 27 26
3 27 29 28
3 29 31 30
3 31 33 32
3 33 35 34
3 35 37 36
3 37 39 38
3 39 41 40
3 41 43 42
3 43 45 44
3 45 47 46
3 47 49 48
3 49 51 50
3 51 53 52
3 53 55 54
3 55 57 56
3 57 59 58
3 59 62 60
3 15 90 61
3 62 64 63
3 64 0 2
3 63 2 1
3 1 4 6
3 6 8 10
3 10 12 6
3 12 14 6
3 14 16 18
3 18 20 14
3 20 22 14
3 22 24 30
3 24 26 30
3 26 28 30
3 30 32 34
3 34 36 38
3 38 40 42
3 42 44 46
3 46 48 50
3 50 52 54
3 54 56 63
3 56 58 63
3 58 60 63
3 63 1 6
3 30 34 46
3 34 38 46
3 38 42 46
3 46 50 63
3 50 54 63
3 63 6 14
3 14 22 30
3 63 14 46
3 61 128 65
3 33 91 67
3 51 92 68
3 7 93 69
3 25 94 70
3 43 95 71
3 62 96 72
3 17 61 66
3 35 67 73
3 53 68 74
3 9 69 75
3 27 70 76
3 45 71 77
3 0 79 78
3 64 72 79
3 19 66 80
3 37 73 81
3 55 74 82
3 11 75 83
3 29 76 84
3 47 77 85
3 3 78 86
3 21 80 87
3 39 81 88
3 57 82 89
3 13 83 90
3 31 84 91
3 49 85 92
3 5 86 93
3 23 87 94
3 41 88 95
3 59 89 96
3 72 119 97
3 71 129 98
3 66 65 99
3 77 98 100
3 87 80 99
3 85 100 102
3 94 87 101
3 92 102 104
3 70 94 103
3 68 104 106
3 76 70 105
3 74 106 108
3 84 76 107
3 111 130 159
3 159 158 111
3 158 157 111
3 157 156 155
3 155 154 153
3 153 152 151
3 151 150 149
3 149 148 112
3 148 147 112
3 147 146 112
3 112 145 144
3 144 143 112
3 143 142 112
3 142 141 140
3 140 139 138
3 138 137 136
3 136 135 138
3 135 110 138
3 110 134 133
3 133 132 110
3 132 111 110
3 157 155 153
3 153 151 112
3 151 149 112
3 142 140 112
3 140 138 112
3 111 157 112
3 157 153 112
3 138 110 112
3 82 108 113
3 91 84 109
3 86 124 115
3 89 113 116
3 67 91 114
3 93 115 118
3 96 116 119
3 73 67 117
3 69 118 121
3 81 73 120
3 75 121 123
3 78 131 124
3 88 81 122
3 83 123 126
3 95 88 125
3 90 126 128
3 71 95 127
3 97 159 130
3 131 130 111
3 124 111 132
3 115 132 133
3 118 133 134
3 121 134 110
3 123 110 135
3 126 135 136
3 65 128 136
3 99 65 137
3 101 99 138
3 103 101 139
3 105 103 140
3 107 105 141
3 109 107 142
3 114 109 143
3 117 114 144
3 120 117 145
3 122 120 112
3 125 122 146
3 127 125 147
3 129 127 148
3 98 129 149
3 100 98 150
3 100 151 152
3 102 152 153
3 104 153 154
3 106 154 155
3 108 155 156
3 113 156 157
3 116 157 158
3 119 158 159
3 79 97 131
3 160 163 161
3 163 165 164
3 165 167 166
3 167 160 162
3 164 166 162
3 163 160 167
