ply
format ascii 1.0
comment Created by Blender 2.80 (sub 75) - www.blender.org, source file: 'hooman.blend'
element vertex 586
property float x
property float y
property float z
element face 1168
property list uchar uint vertex_indices
end_header
-0.303287 6.597812 -0.228835
0.000000 6.704041 -0.164897
0.000000 6.422184 -0.329447
-0.583925 6.756861 -0.103392
-0.212740 6.806450 -0.092059
-0.377001 6.886346 0.021252
-0.124179 6.925029 0.034271
0.000000 6.887570 -0.014368
-0.674058 6.027389 -0.186422
-0.337066 6.296739 -0.315810
-0.326460 5.932004 -0.363102
-0.623661 6.457895 -0.214402
0.000000 6.086103 -0.441916
0.000000 5.742519 -0.505684
-0.472748 5.093481 -0.283534
-0.309224 4.563388 -0.459378
-0.552808 4.583313 -0.288857
0.000000 5.033571 -0.552156
-0.257580 5.071238 -0.452038
0.000000 4.167201 -0.320603
-0.393139 3.983862 -0.445419
-0.660826 4.005648 -0.294995
-0.797453 6.526435 -0.167739
-0.753941 6.737719 -0.079668
-0.878668 6.155483 -0.178082
-0.876642 6.534801 -0.081979
-0.813575 6.695711 -0.038287
0.000000 6.139854 0.545728
-0.353142 5.836955 0.449182
0.000000 5.640546 0.530984
0.000000 6.608510 0.534437
-0.346616 6.292802 0.474211
-0.311007 6.679372 0.471895
-0.632274 6.412528 0.412595
-0.702079 5.949785 0.328842
-0.767162 4.032802 0.024710
-0.718241 3.307388 0.227189
-0.684713 4.032914 0.353518
-0.801468 3.312757 -0.063284
-0.710013 3.294546 -0.335968
-0.769024 2.443819 -0.136179
-0.702840 2.431721 0.085806
-0.567754 5.057491 0.258307
-0.673199 4.595072 0.018521
-0.619390 4.587610 0.330251
-0.598289 5.088313 -0.012491
0.000000 4.946376 0.525286
-0.367598 4.563626 0.514915
0.000000 4.548118 0.604888
-0.340709 5.007049 0.426113
-0.415205 4.020988 0.536487
0.000000 4.197680 0.526919
-0.318459 0.729651 0.050732
-0.332975 0.348822 -0.053635
-0.351544 0.733710 -0.088131
-0.366648 0.727355 0.177959
-0.303957 0.348236 0.083965
-0.353205 0.347901 0.207119
-0.280140 0.198746 0.085085
-0.294332 0.189170 -0.128119
-0.236913 3.265460 0.333584
-0.483311 3.283021 0.392216
-0.517945 2.411395 0.224050
-0.329013 2.395536 0.189015
-0.228976 3.252645 -0.336204
-0.471895 3.265751 -0.451525
-0.503143 2.427772 -0.411312
-0.694219 2.442698 -0.334955
0.000000 4.047607 0.127128
-0.150114 3.242142 0.010267
-0.252064 2.395348 -0.051083
-0.316104 2.408380 -0.314388
-0.609272 0.199369 0.046675
-0.559244 0.102155 0.183499
-0.560108 0.200007 0.183266
-0.585503 0.189567 -0.135285
-0.612154 0.100039 0.043672
-0.571536 0.026719 -0.141326
-0.562080 0.031590 0.046274
-0.535980 0.045362 0.161595
-0.576296 0.732387 0.129154
-0.596751 0.349535 0.048989
-0.555403 0.348949 0.167987
-0.616464 0.736119 0.008068
-0.559808 0.349667 -0.064918
-0.455778 0.348167 0.232369
-0.472976 0.728741 0.200115
-0.450848 0.199597 0.253360
-0.338264 0.199481 0.225453
-0.461948 0.737029 -0.141315
-0.575358 0.738086 -0.101382
-0.445027 0.351013 -0.105610
-0.439389 0.211906 -0.183318
0.000000 5.275051 0.504708
-0.338974 5.415556 0.412399
-0.577312 5.522928 0.261928
-0.726797 5.818341 0.056890
-0.619004 5.569021 0.015047
-0.505623 5.589014 -0.236881
-0.275905 5.524812 -0.412910
0.000000 5.415212 -0.539258
-0.864550 6.494031 0.292869
-1.016178 6.167337 0.094703
-0.981270 6.130075 0.281844
-0.803929 6.671306 0.257441
-0.891586 6.522769 0.105366
-0.985323 6.181612 -0.094979
-0.888285 6.079256 0.355993
-0.748101 6.712703 0.306528
-0.792398 6.468892 0.378032
-0.627306 6.849142 0.142334
-0.590363 6.758537 0.364857
-0.740554 6.798701 0.116281
-0.806181 6.713615 0.109821
-1.231396 5.066366 -0.090786
-1.170326 4.541523 -0.120813
-1.279631 4.548627 -0.063004
-0.999620 5.032739 -0.105414
-1.108801 5.053154 -0.155588
-1.108192 4.193309 -0.022193
-1.196419 4.190036 -0.083207
-1.286839 4.193535 -0.031846
-1.204733 4.040894 -0.062379
-1.284065 4.042968 -0.014750
-1.124396 4.047648 0.000555
-1.130019 3.976260 0.004684
-1.202720 3.969898 -0.056119
-1.274086 3.971879 -0.009685
-0.985805 5.016482 0.040360
-1.070156 4.535532 -0.066903
-1.052491 5.013026 0.194228
-1.052369 4.535288 0.078314
-1.108057 4.539559 0.226635
-1.083145 4.203923 0.129066
-1.157984 5.026746 0.265985
-1.290452 4.550538 0.239297
-1.203822 4.545605 0.288826
-1.284643 4.209226 0.268381
-1.204456 4.214866 0.328836
-1.122077 4.213735 0.276915
-1.250063 5.047667 0.222768
-1.321779 4.551839 0.089699
-1.280981 5.063417 0.070038
-1.317730 4.200979 0.116563
-1.130984 4.001075 0.291987
-1.191602 3.879983 0.318820
-1.136862 3.881794 0.275292
-1.266004 3.991552 0.274939
-1.197827 4.000484 0.337081
-1.247596 3.875503 0.262031
-1.186045 3.763924 0.255693
-1.148214 3.784106 0.238451
-1.096776 4.062217 0.151627
-1.104337 3.989971 0.151281
-1.127036 4.073983 0.296532
-1.276058 4.063715 0.278946
-1.201044 4.073263 0.343021
-1.309001 4.051940 0.129014
-1.296209 3.980412 0.129682
-1.148197 3.770974 0.030023
-1.184782 3.715728 0.127287
-1.188244 3.749806 0.002942
-1.139866 3.757967 0.133881
-1.226437 3.780907 0.229863
-1.234422 3.755763 0.124753
-1.230231 3.769881 0.022803
-1.271834 3.864941 0.126563
-1.253986 3.859770 -0.004303
-1.136080 3.862073 0.006491
-1.195438 3.855722 -0.049255
-1.115205 3.870764 0.143002
-1.164223 5.644310 0.076713
-1.130322 5.612905 0.245518
-1.119764 5.653928 -0.098885
-1.035601 5.573114 0.298818
-0.926239 5.539155 0.227164
-0.885448 5.586081 -0.119857
-0.869742 5.536230 0.048711
-1.000696 5.632390 -0.170744
-0.357333 0.044967 0.191684
-0.443264 0.007685 0.061818
-0.324195 0.031149 0.073047
-0.447456 0.034168 0.199216
-0.439699 0.003646 -0.138667
-0.307759 0.026356 -0.135857
-0.449418 0.100668 0.253609
-0.336209 0.101632 0.225338
-0.618851 0.072759 -0.335033
-0.569725 0.023000 -0.335817
-0.623659 0.092107 -0.141718
-0.571142 0.125472 -0.336086
-0.543443 0.092824 -0.458564
-0.566315 0.056639 -0.480182
-0.543650 0.025774 -0.458872
-0.274468 0.099406 0.082663
-0.255455 0.091601 -0.133909
-0.441750 0.095691 -0.491994
-0.339290 0.092593 -0.476555
-0.442729 0.050860 -0.543532
-0.339497 0.025543 -0.476863
-0.442003 0.017304 -0.492371
-0.308272 0.125167 -0.350065
-0.439691 0.143821 -0.349365
-0.310202 0.022698 -0.349834
-0.440053 0.004487 -0.345312
-0.260897 0.072342 -0.354763
-0.317437 0.056356 -0.504182
-0.633908 1.506446 -0.226492
-0.490064 1.502115 -0.277348
-0.350059 1.492215 -0.205239
-0.504137 1.481698 0.173524
-0.364568 1.476568 0.151601
-0.639869 1.492397 0.072483
-0.689308 1.502240 -0.086414
-0.304893 1.481573 -0.017410
-0.184527 7.206749 0.274980
-0.223221 7.274533 0.186989
-0.160580 7.198112 0.210778
-0.160337 7.211577 0.337396
-0.259722 7.291039 0.279734
-0.228637 7.298568 0.371056
-0.341299 7.378518 0.293914
-0.292230 7.356665 0.117394
-0.436297 6.919100 0.201622
-0.388239 6.910644 0.371985
-0.258920 6.969363 0.258132
-0.219113 6.954278 0.119532
0.000000 6.870633 0.498286
-0.222709 6.891084 0.460232
-0.134741 6.971188 0.445310
-0.231183 6.973359 0.387162
-0.176457 7.382091 0.509483
-0.351036 7.514210 0.499595
-0.302895 7.388580 0.432063
0.000000 7.494300 0.641782
-0.205552 7.508969 0.594986
0.000000 7.683953 0.696179
-0.219272 7.686636 0.649942
-0.373029 7.684243 0.547577
-0.092370 7.189343 0.173220
0.000000 7.231894 0.121348
0.000000 7.180912 0.153623
-0.125751 7.252918 0.140166
-0.148510 7.297838 0.060556
0.000000 7.262199 0.042601
-0.132369 7.294191 0.423125
-0.092157 7.209549 0.369897
0.000000 7.282813 0.449611
0.000000 7.365836 0.549631
-0.370322 7.883680 0.551307
-0.220381 7.903593 0.646104
0.000000 7.924812 0.685441
-0.210556 8.081301 0.556159
-0.333829 8.023413 0.511369
-0.360319 7.490528 0.128141
-0.393611 7.504274 0.326845
-0.415804 7.672672 0.356767
-0.382316 7.651724 0.140435
-0.293242 7.489245 -0.032232
-0.236796 7.401072 -0.036230
-0.317971 7.624089 -0.028665
-0.230727 7.600130 -0.133689
-0.208614 7.487977 -0.132609
-0.186755 7.428788 -0.116456
-0.201384 8.153257 0.369091
-0.347384 8.047846 0.362535
0.000000 8.130093 0.581155
0.000000 8.217108 0.375589
-0.183161 8.135487 0.149171
-0.320022 8.028770 0.151063
-0.378369 7.850050 0.148329
-0.410626 7.873483 0.366007
-0.159322 8.056658 -0.023407
-0.275135 7.969055 -0.017996
0.000000 8.099056 -0.030786
0.000000 7.945627 -0.136282
-0.138308 7.926711 -0.127234
-0.228183 7.897190 -0.104946
-0.107271 7.405777 -0.140997
0.000000 7.461596 -0.188196
0.000000 7.376087 -0.153923
-0.108855 7.477178 -0.175956
-0.121439 7.588748 -0.177824
0.000000 7.585342 -0.188488
0.000000 7.759361 -0.178969
-0.130012 7.755178 -0.169092
-0.130678 7.348167 -0.051245
0.000000 7.309341 -0.064390
-0.320257 7.806034 -0.022848
-0.239651 7.764689 -0.126409
-0.128167 7.019028 0.366756
-0.073896 7.103260 0.372276
-0.128856 7.104879 0.342671
-0.074008 7.017599 0.402397
0.000000 7.097929 0.377707
0.000000 7.203374 0.382652
-0.072189 6.998947 0.129196
0.000000 7.083221 0.136213
0.000000 6.993464 0.098483
-0.126089 7.005675 0.185789
-0.075041 7.087812 0.160663
-0.130165 7.093528 0.204326
-0.146197 7.013792 0.279970
-0.148937 7.100498 0.275979
-0.144237 6.975204 0.166545
-0.170422 6.984459 0.280342
0.000000 6.955275 0.062134
-0.081750 6.965268 0.098565
-0.152148 6.990149 0.385100
0.000000 6.966138 0.457266
-0.088672 6.989979 0.427467
0.000000 6.986300 0.429244
0.303287 6.597812 -0.228835
0.212740 6.806450 -0.092059
0.583925 6.756861 -0.103392
0.124179 6.925029 0.034271
0.377001 6.886346 0.021252
0.674058 6.027389 -0.186422
0.337066 6.296739 -0.315810
0.623661 6.457895 -0.214402
0.326460 5.932004 -0.363102
0.472748 5.093481 -0.283534
0.309224 4.563388 -0.459378
0.257580 5.071238 -0.452038
0.000000 4.557981 -0.523599
0.552808 4.583313 -0.288857
0.393139 3.983862 -0.445419
0.797453 6.526435 -0.167739
0.878668 6.155483 -0.178082
0.876642 6.534801 -0.081979
0.813575 6.695711 -0.038287
0.753941 6.737719 -0.079668
0.353142 5.836955 0.449182
0.346616 6.292802 0.474211
0.632274 6.412528 0.412595
0.311007 6.679372 0.471895
0.702079 5.949785 0.328842
0.718241 3.307388 0.227189
0.767162 4.032802 0.024710
0.684713 4.032914 0.353518
0.801468 3.312757 -0.063284
0.660826 4.005648 -0.294995
0.769024 2.443819 -0.136179
0.710013 3.294546 -0.335968
0.702840 2.431721 0.085806
0.567754 5.057491 0.258307
0.673199 4.595072 0.018521
0.598289 5.088313 -0.012491
0.619390 4.587610 0.330251
0.367598 4.563626 0.514915
0.340709 5.007049 0.426113
0.415205 4.020988 0.536487
0.332975 0.348822 -0.053635
0.318459 0.729651 0.050732
0.351544 0.733710 -0.088131
0.303957 0.348236 0.083965
0.366648 0.727355 0.177959
0.280140 0.198746 0.085085
0.353205 0.347901 0.207119
0.236913 3.265460 0.333584
0.483311 3.283021 0.392216
0.517945 2.411395 0.224050
0.228976 3.252645 -0.336204
0.503143 2.427772 -0.411312
0.471895 3.265751 -0.451525
0.694219 2.442698 -0.334955
0.150114 3.242142 0.010267
0.329013 2.395536 0.189015
0.252064 2.395348 -0.051083
0.559244 0.102155 0.183499
0.609272 0.199369 0.046675
0.560108 0.200007 0.183266
0.612154 0.100039 0.043672
0.585503 0.189567 -0.135285
0.571536 0.026719 -0.141326
0.623659 0.092107 -0.141718
0.535980 0.045362 0.161595
0.576296 0.732387 0.129154
0.596751 0.349535 0.048989
0.616464 0.736119 0.008068
0.559808 0.349667 -0.064918
0.575358 0.738086 -0.101382
0.555403 0.348949 0.167987
0.455778 0.348167 0.232369
0.472976 0.728741 0.200115
0.450848 0.199597 0.253360
0.461948 0.737029 -0.141315
0.445027 0.351013 -0.105610
0.439389 0.211906 -0.183318
0.338974 5.415556 0.412399
0.577312 5.522928 0.261928
0.726797 5.818341 0.056890
0.505623 5.589014 -0.236881
0.619004 5.569021 0.015047
0.275905 5.524812 -0.412910
1.016178 6.167337 0.094703
0.864550 6.494031 0.292869
0.981270 6.130075 0.281844
0.891586 6.522769 0.105366
0.803929 6.671306 0.257441
0.806181 6.713615 0.109821
0.985323 6.181612 -0.094979
0.888285 6.079256 0.355993
0.748101 6.712703 0.306528
0.590363 6.758537 0.364857
0.792398 6.468892 0.378032
0.627306 6.849142 0.142334
0.740554 6.798701 0.116281
1.231396 5.066366 -0.090786
1.170326 4.541523 -0.120813
1.108801 5.053154 -0.155588
0.999620 5.032739 -0.105414
1.108192 4.193309 -0.022193
1.070156 4.535532 -0.066903
1.279631 4.548627 -0.063004
1.196419 4.190036 -0.083207
1.286839 4.193535 -0.031846
1.204733 4.040894 -0.062379
1.124396 4.047648 0.000555
1.130019 3.976260 0.004684
1.274086 3.971879 -0.009685
1.284065 4.042968 -0.014750
0.985805 5.016482 0.040360
1.052369 4.535288 0.078314
1.052491 5.013026 0.194228
1.083145 4.203923 0.129066
1.108057 4.539559 0.226635
1.157984 5.026746 0.265985
1.290452 4.550538 0.239297
1.250063 5.047667 0.222768
1.203822 4.545605 0.288826
1.284643 4.209226 0.268381
1.122077 4.213735 0.276915
1.321779 4.551839 0.089699
1.280981 5.063417 0.070038
1.317730 4.200979 0.116563
1.130984 4.001075 0.291987
1.191602 3.879983 0.318820
1.197827 4.000484 0.337081
1.266004 3.991552 0.274939
1.186045 3.763924 0.255693
1.247596 3.875503 0.262031
1.136862 3.881794 0.275292
1.096776 4.062217 0.151627
1.127036 4.073983 0.296532
1.104337 3.989971 0.151281
1.204456 4.214866 0.328836
1.276058 4.063715 0.278946
1.201044 4.073263 0.343021
1.309001 4.051940 0.129014
1.296209 3.980412 0.129682
1.148197 3.770974 0.030023
1.184782 3.715728 0.127287
1.139866 3.757967 0.133881
1.148214 3.784106 0.238451
1.226437 3.780907 0.229863
1.230231 3.769881 0.022803
1.188244 3.749806 0.002942
1.271834 3.864941 0.126563
1.253986 3.859770 -0.004303
1.202720 3.969898 -0.056119
1.136080 3.862073 0.006491
1.195438 3.855722 -0.049255
1.115205 3.870764 0.143002
1.164223 5.644310 0.076713
1.119764 5.653928 -0.098885
1.130322 5.612905 0.245518
1.035601 5.573114 0.298818
0.926239 5.539155 0.227164
0.885448 5.586081 -0.119857
0.869742 5.536230 0.048711
1.000696 5.632390 -0.170744
0.357333 0.044967 0.191684
0.443264 0.007685 0.061818
0.447456 0.034168 0.199216
0.439699 0.003646 -0.138667
0.562080 0.031590 0.046274
0.307759 0.026356 -0.135857
0.324195 0.031149 0.073047
0.338264 0.199481 0.225453
0.449418 0.100668 0.253609
0.336209 0.101632 0.225338
0.618851 0.072759 -0.335033
0.571142 0.125472 -0.336086
0.543443 0.092824 -0.458564
0.569725 0.023000 -0.335817
0.566315 0.056639 -0.480182
0.294332 0.189170 -0.128119
0.274468 0.099406 0.082663
0.255455 0.091601 -0.133909
0.441750 0.095691 -0.491994
0.442729 0.050860 -0.543532
0.339290 0.092593 -0.476555
0.339497 0.025543 -0.476863
0.317437 0.056356 -0.504182
0.442003 0.017304 -0.492371
0.308272 0.125167 -0.350065
0.439691 0.143821 -0.349365
0.310202 0.022698 -0.349834
0.440053 0.004487 -0.345312
0.543650 0.025774 -0.458872
0.260897 0.072342 -0.354763
0.633908 1.506446 -0.226492
0.490064 1.502115 -0.277348
0.316104 2.408380 -0.314388
0.350059 1.492215 -0.205239
0.504137 1.481698 0.173524
0.639869 1.492397 0.072483
0.364568 1.476568 0.151601
0.689308 1.502240 -0.086414
0.304893 1.481573 -0.017410
0.223221 7.274533 0.186989
0.184527 7.206749 0.274980
0.160580 7.198112 0.210778
0.259722 7.291039 0.279734
0.160337 7.211577 0.337396
0.341299 7.378518 0.293914
0.228637 7.298568 0.371056
0.292230 7.356665 0.117394
0.436297 6.919100 0.201622
0.258920 6.969363 0.258132
0.388239 6.910644 0.371985
0.219113 6.954278 0.119532
0.134741 6.971188 0.445310
0.222709 6.891084 0.460232
0.231183 6.973359 0.387162
0.351036 7.514210 0.499595
0.176457 7.382091 0.509483
0.302895 7.388580 0.432063
0.205552 7.508969 0.594986
0.373029 7.684243 0.547577
0.092370 7.189343 0.173220
0.125751 7.252918 0.140166
0.148510 7.297838 0.060556
0.132369 7.294191 0.423125
0.092157 7.209549 0.369897
0.370322 7.883680 0.551307
0.219272 7.686636 0.649942
0.220381 7.903593 0.646104
0.210556 8.081301 0.556159
0.333829 8.023413 0.511369
0.360319 7.490528 0.128141
0.393611 7.504274 0.326845
0.415804 7.672672 0.356767
0.382316 7.651724 0.140435
0.293242 7.489245 -0.032232
0.317971 7.624089 -0.028665
0.230727 7.600130 -0.133689
0.236796 7.401072 -0.036230
0.208614 7.487977 -0.132609
0.201384 8.153257 0.369091
0.183161 8.135487 0.149171
0.320022 8.028770 0.151063
0.347384 8.047846 0.362535
0.378369 7.850050 0.148329
0.410626 7.873483 0.366007
0.159322 8.056658 -0.023407
0.000000 8.196378 0.144767
0.275135 7.969055 -0.017996
0.138308 7.926711 -0.127234
0.107271 7.405777 -0.140997
0.108855 7.477178 -0.175956
0.186755 7.428788 -0.116456
0.121439 7.588748 -0.177824
0.130012 7.755178 -0.169092
0.228183 7.897190 -0.104946
0.239651 7.764689 -0.126409
0.130678 7.348167 -0.051245
0.320257 7.806034 -0.022848
0.128167 7.019028 0.366756
0.073896 7.103260 0.372276
0.074008 7.017599 0.402397
0.000000 7.012044 0.404763
0.128856 7.104879 0.342671
0.072189 6.998947 0.129196
0.075041 7.087812 0.160663
0.126089 7.005675 0.185789
0.130165 7.093528 0.204326
0.146197 7.013792 0.279970
0.148937 7.100498 0.275979
0.144237 6.975204 0.166545
0.170422 6.984459 0.280342
0.152148 6.990149 0.385100
0.081750 6.965268 0.098565
0.088672 6.989979 0.427467
1.234422 3.755763 0.124753
3 0 1 2
3 3 4 0
3 5 6 4
3 4 7 1
3 8 9 10
3 11 0 9
3 9 2 12
3 10 12 13
3 14 15 16
3 17 15 18
3 15 19 20
3 16 20 21
3 3 22 23
3 11 24 22
3 24 25 22
3 22 26 23
3 27 28 29
3 30 31 27
3 32 33 31
3 31 34 28
3 35 36 37
3 21 38 35
3 39 40 38
3 38 41 36
3 42 43 44
3 45 16 43
3 43 21 35
3 44 35 37
3 46 47 48
3 49 44 47
3 44 50 47
3 47 51 48
3 52 53 54
3 55 56 52
3 57 58 56
3 53 58 59
3 50 60 51
3 37 61 50
3 36 62 61
3 60 62 63
3 20 39 21
3 20 64 65
3 64 66 65
3 65 67 39
3 68 64 19
3 68 60 69
3 69 63 70
3 64 70 71
3 72 73 74
3 75 76 72
3 76 77 78
3 76 79 73
3 80 81 82
3 83 84 81
3 84 72 81
3 82 72 74
3 55 85 57
3 86 82 85
3 85 74 87
3 57 87 88
3 89 84 90
3 54 91 89
3 53 92 91
3 91 75 84
3 93 49 46
3 29 94 93
3 28 95 94
3 94 42 49
3 95 45 42
3 95 96 97
3 96 98 97
3 45 98 14
3 14 99 18
3 98 10 99
3 99 13 100
3 18 100 17
3 101 102 103
3 104 105 101
3 105 26 25
3 105 106 102
3 33 107 34
3 33 108 109
3 109 104 101
3 109 103 107
3 110 108 111
3 3 112 110
3 23 113 112
3 112 104 108
3 114 115 116
3 117 115 118
3 115 119 120
3 116 120 121
3 121 122 123
3 120 124 122
3 122 125 126
3 122 127 123
3 128 129 117
3 130 131 128
3 132 133 131
3 131 119 129
3 134 132 130
3 134 135 136
3 136 137 138
3 136 139 132
3 140 141 135
3 142 116 141
3 141 121 143
3 135 143 137
3 144 145 146
3 147 145 148
3 149 150 145
3 146 150 151
3 133 124 119
3 139 152 133
3 152 144 153
3 124 153 125
3 138 154 139
3 138 155 156
3 155 148 156
3 154 148 144
3 137 157 155
3 143 123 157
3 123 158 157
3 157 147 155
3 159 160 161
3 162 150 160
3 160 163 164
3 160 165 161
3 158 149 147
3 127 166 158
3 166 165 164
3 166 163 149
3 126 167 127
3 126 168 169
3 168 161 169
3 169 165 167
3 125 170 168
3 153 146 170
3 170 151 162
3 170 159 168
3 103 171 172
3 102 173 171
3 171 114 142
3 172 142 140
3 34 174 175
3 107 172 174
3 174 140 134
3 175 134 130
3 96 176 8
3 96 175 177
3 175 128 177
3 177 117 176
3 106 178 173
3 8 178 24
3 176 118 178
3 173 118 114
3 179 180 181
3 79 180 182
3 78 183 180
3 180 184 181
3 88 185 186
3 87 73 185
3 73 182 185
3 185 179 186
3 77 187 188
3 189 190 187
3 187 191 192
3 188 192 193
3 59 194 195
3 58 186 194
3 194 179 181
3 195 181 184
3 196 192 191
3 197 198 196
3 198 199 200
3 192 200 193
3 92 190 75
3 92 201 202
3 202 197 196
3 202 191 190
3 183 203 184
3 183 188 204
3 204 193 200
3 204 199 203
3 195 201 59
3 184 205 195
3 205 199 206
3 205 197 201
3 66 207 67
3 71 208 66
3 209 89 208
3 208 90 207
3 63 210 211
3 62 212 210
3 210 80 86
3 211 86 55
3 41 213 212
3 40 207 213
3 213 90 83
3 212 83 80
3 70 209 71
3 63 214 70
3 211 52 214
3 214 54 209
3 215 216 217
3 218 219 215
3 220 221 219
3 219 222 216
3 110 5 3
3 111 223 110
3 224 225 223
3 223 226 5
3 32 224 111
3 32 227 228
3 227 229 228
3 228 230 224
3 231 232 233
3 231 234 235
3 235 236 237
3 235 238 232
3 239 240 241
3 217 242 239
3 216 243 242
3 242 244 240
3 218 245 220
3 246 247 245
3 245 248 231
3 220 231 233
3 237 249 238
3 236 250 237
3 251 252 250
3 250 253 249
3 221 254 222
3 233 255 221
3 232 256 255
3 255 257 254
3 222 258 259
3 254 260 258
3 258 261 262
3 259 262 263
3 253 264 265
3 266 264 252
3 267 268 264
3 264 269 265
3 256 270 257
3 238 271 256
3 271 253 265
3 271 269 270
3 269 272 273
3 268 274 272
3 272 275 276
3 273 276 277
3 278 279 280
3 263 281 278
3 262 282 281
3 281 283 279
3 282 284 283
3 261 285 282
3 285 277 276
3 284 276 275
3 244 286 287
3 243 259 286
3 286 263 278
3 287 278 280
3 257 288 260
3 270 273 288
3 288 277 289
3 260 289 261
3 290 291 292
3 293 294 291
3 291 295 246
3 292 246 218
3 296 297 298
3 299 300 296
3 301 239 300
3 300 241 297
3 302 301 299
3 302 292 303
3 303 218 215
3 303 217 301
3 225 304 226
3 230 305 225
3 305 290 302
3 305 299 304
3 6 306 7
3 226 307 6
3 304 296 307
3 307 298 306
3 229 308 230
3 309 310 229
3 311 293 310
3 310 290 308
3 1 312 2
3 313 314 312
3 315 316 313
3 7 313 1
3 317 318 319
3 319 312 314
3 318 2 312
3 320 12 318
3 321 322 323
3 322 17 323
3 322 19 324
3 325 326 322
3 314 327 319
3 319 328 317
3 329 328 327
3 330 327 331
3 332 27 29
3 333 30 27
3 334 335 333
3 336 333 332
3 337 338 339
3 340 341 338
3 342 343 340
3 344 340 337
3 345 346 347
3 347 325 321
3 346 341 325
3 348 338 346
3 46 349 350
3 350 348 345
3 351 348 349
3 51 349 48
3 352 353 354
3 355 356 353
3 357 358 355
3 352 357 355
3 359 351 51
3 360 339 351
3 361 337 360
3 359 361 360
3 343 326 341
3 326 362 19
3 363 362 364
3 365 364 343
3 362 68 19
3 68 359 51
3 366 367 359
3 362 368 366
3 369 370 371
3 372 373 370
3 372 374 375
3 376 372 369
3 377 378 379
3 379 380 381
3 370 380 378
3 382 370 378
3 356 383 384
3 384 382 377
3 383 371 382
3 358 385 383
3 380 386 381
3 387 354 386
3 388 352 387
3 373 387 380
3 350 93 46
3 389 29 93
3 390 332 389
3 345 389 350
3 347 390 345
3 390 391 336
3 392 391 393
3 347 392 393
3 321 394 392
3 392 320 317
3 394 13 320
3 323 100 394
3 395 396 397
3 398 399 396
3 398 330 400
3 401 398 395
3 402 334 336
3 334 403 404
3 405 399 403
3 397 405 402
3 403 406 404
3 407 314 406
3 400 331 407
3 399 407 403
3 408 409 410
3 409 411 410
3 409 412 413
3 414 415 409
3 416 417 415
3 415 418 412
3 417 419 418
3 420 417 421
3 413 422 411
3 423 424 422
3 425 426 423
3 412 423 413
3 426 427 424
3 427 428 429
3 430 431 428
3 432 430 426
3 429 433 434
3 434 414 408
3 433 416 414
3 428 435 433
3 436 437 438
3 437 439 438
3 440 441 437
3 442 440 437
3 418 425 412
3 443 432 425
3 443 436 444
3 418 445 443
3 444 446 432
3 446 447 431
3 438 447 448
3 444 438 448
3 431 449 435
3 435 421 416
3 450 421 449
3 439 449 447
3 451 452 453
3 453 440 454
3 452 455 440
3 456 452 457
3 441 450 439
3 458 420 450
3 458 456 459
3 455 458 441
3 459 460 420
3 460 461 419
3 457 461 462
3 456 462 459
3 419 463 445
3 445 442 436
3 463 454 442
3 451 463 461
3 397 464 395
3 395 465 401
3 464 408 465
3 466 434 464
3 336 467 402
3 402 466 397
3 467 429 466
3 468 427 467
3 469 391 317
3 391 468 336
3 422 468 470
3 411 470 469
3 401 471 328
3 471 317 328
3 410 469 471
3 465 410 471
3 472 473 474
3 473 376 474
3 475 476 473
3 477 473 478
3 479 480 385
3 385 369 371
3 474 369 480
3 472 480 481
3 374 482 375
3 375 483 373
3 482 484 483
3 485 486 482
3 487 488 357
3 357 481 479
3 488 472 481
3 489 478 488
3 486 490 484
3 491 492 490
3 491 493 494
3 486 495 491
3 483 388 373
3 388 496 487
3 497 492 496
3 484 497 483
3 498 475 477
3 475 485 374
3 499 500 485
3 493 499 498
3 496 489 487
3 501 477 489
3 501 493 498
3 492 501 496
3 502 363 365
3 503 504 363
3 386 505 503
3 381 503 502
3 367 506 361
3 361 507 344
3 506 377 507
3 508 384 506
3 344 509 342
3 342 502 365
3 509 381 502
3 507 379 509
3 505 368 504
3 510 367 368
3 353 508 510
3 354 510 505
3 511 512 513
3 514 515 512
3 516 517 514
3 518 514 511
3 316 406 314
3 519 404 406
3 520 521 519
3 522 519 316
3 521 335 404
3 335 227 30
3 523 227 524
3 525 524 521
3 526 527 528
3 527 234 248
3 529 236 234
3 530 529 526
3 240 531 241
3 532 513 531
3 533 511 532
3 244 532 240
3 515 534 535
3 535 247 295
3 534 248 247
3 517 527 534
3 536 537 530
3 538 236 537
3 539 251 538
3 540 538 536
3 541 516 518
3 542 528 516
3 543 526 542
3 544 542 541
3 518 545 541
3 541 546 544
3 545 547 546
3 548 549 545
3 540 550 539
3 550 266 539
3 551 267 550
3 552 550 553
3 554 543 544
3 555 530 543
3 555 540 536
3 552 555 554
3 552 556 551
3 551 274 557
3 556 275 274
3 558 559 556
3 279 560 280
3 561 562 560
3 563 549 561
3 283 561 279
3 284 563 283
3 564 547 563
3 564 565 566
3 284 559 564
3 244 567 533
3 533 548 518
3 567 562 548
3 287 560 567
3 544 568 554
3 554 558 552
3 568 565 558
3 546 566 568
3 569 570 571
3 571 294 572
3 570 295 294
3 573 535 570
3 297 574 298
3 575 576 574
3 531 577 575
3 241 575 297
3 577 578 576
3 578 573 569
3 579 515 573
3 513 579 577
3 580 520 522
3 581 525 520
3 581 569 582
3 576 581 580
3 306 315 7
3 583 522 315
3 574 580 583
3 298 583 306
3 582 523 525
3 584 309 523
3 571 311 584
3 569 584 582
3 0 4 1
3 3 5 4
3 5 226 6
3 4 6 7
3 8 11 9
3 11 3 0
3 9 0 2
3 10 9 12
3 14 18 15
3 17 324 15
3 15 324 19
3 16 15 20
3 3 11 22
3 11 8 24
3 24 106 25
3 22 25 26
3 27 31 28
3 30 32 31
3 32 111 33
3 31 33 34
3 35 38 36
3 21 39 38
3 39 67 40
3 38 40 41
3 42 45 43
3 45 14 16
3 43 16 21
3 44 43 35
3 46 49 47
3 49 42 44
3 44 37 50
3 47 50 51
3 52 56 53
3 55 57 56
3 57 88 58
3 53 56 58
3 50 61 60
3 37 36 61
3 36 41 62
3 60 61 62
3 20 65 39
3 20 19 64
3 64 71 66
3 65 66 67
3 68 69 64
3 68 51 60
3 69 60 63
3 64 69 70
3 72 76 73
3 75 189 76
3 76 189 77
3 76 78 79
3 80 83 81
3 83 90 84
3 84 75 72
3 82 81 72
3 55 86 85
3 86 80 82
3 85 82 74
3 57 85 87
3 89 91 84
3 54 53 91
3 53 59 92
3 91 92 75
3 93 94 49
3 29 28 94
3 28 34 95
3 94 95 42
3 95 97 45
3 95 34 96
3 96 8 98
3 45 97 98
3 14 98 99
3 98 8 10
3 99 10 13
3 18 99 100
3 101 105 102
3 104 113 105
3 105 113 26
3 105 25 106
3 33 109 107
3 33 111 108
3 109 108 104
3 109 101 103
3 110 112 108
3 3 23 112
3 23 26 113
3 112 113 104
3 114 118 115
3 117 129 115
3 115 129 119
3 116 115 120
3 121 120 122
3 120 119 124
3 122 124 125
3 122 126 127
3 128 131 129
3 130 132 131
3 132 139 133
3 131 133 119
3 134 136 132
3 134 140 135
3 136 135 137
3 136 138 139
3 140 142 141
3 142 114 116
3 141 116 121
3 135 141 143
3 144 148 145
3 147 149 145
3 149 163 150
3 146 145 150
3 133 152 124
3 139 154 152
3 152 154 144
3 124 152 153
3 138 156 154
3 138 137 155
3 155 147 148
3 154 156 148
3 137 143 157
3 143 121 123
3 123 127 158
3 157 158 147
3 159 162 160
3 162 151 150
3 160 150 163
3 160 164 165
3 158 166 149
3 127 167 166
3 166 167 165
3 166 164 163
3 126 169 167
3 126 125 168
3 168 159 161
3 169 161 165
3 125 153 170
3 153 144 146
3 170 146 151
3 170 162 159
3 103 102 171
3 102 106 173
3 171 173 114
3 172 171 142
3 34 107 174
3 107 103 172
3 174 172 140
3 175 174 134
3 96 177 176
3 96 34 175
3 175 130 128
3 177 128 117
3 106 24 178
3 8 176 178
3 176 117 118
3 173 178 118
3 179 182 180
3 79 78 180
3 78 77 183
3 180 183 184
3 88 87 185
3 87 74 73
3 73 79 182
3 185 182 179
3 77 189 187
3 189 75 190
3 187 190 191
3 188 187 192
3 59 58 194
3 58 88 186
3 194 186 179
3 195 194 181
3 196 198 192
3 197 206 198
3 198 206 199
3 192 198 200
3 92 202 190
3 92 59 201
3 202 201 197
3 202 196 191
3 183 204 203
3 183 77 188
3 204 188 193
3 204 200 199
3 195 205 201
3 184 203 205
3 205 203 199
3 205 206 197
3 66 208 207
3 71 209 208
3 209 54 89
3 208 89 90
3 63 62 210
3 62 41 212
3 210 212 80
3 211 210 86
3 41 40 213
3 40 67 207
3 213 207 90
3 212 213 83
3 70 214 209
3 63 211 214
3 211 55 52
3 214 52 54
3 215 219 216
3 218 220 219
3 220 233 221
3 219 221 222
3 110 223 5
3 111 224 223
3 224 230 225
3 223 225 226
3 32 228 224
3 32 30 227
3 227 309 229
3 228 229 230
3 231 235 232
3 231 248 234
3 235 234 236
3 235 237 238
3 239 242 240
3 217 216 242
3 216 222 243
3 242 243 244
3 218 246 245
3 246 295 247
3 245 247 248
3 220 245 231
3 237 250 249
3 236 251 250
3 251 266 252
3 250 252 253
3 221 255 254
3 233 232 255
3 232 238 256
3 255 256 257
3 222 254 258
3 254 257 260
3 258 260 261
3 259 258 262
3 253 252 264
3 266 267 264
3 267 557 268
3 264 268 269
3 256 271 270
3 238 249 271
3 271 249 253
3 271 265 269
3 269 268 272
3 268 557 274
3 272 274 275
3 273 272 276
3 278 281 279
3 263 262 281
3 262 261 282
3 281 282 283
3 282 285 284
3 261 289 285
3 285 289 277
3 284 285 276
3 244 243 286
3 243 222 259
3 286 259 263
3 287 286 278
3 257 270 288
3 270 269 273
3 288 273 277
3 260 288 289
3 290 293 291
3 293 572 294
3 291 294 295
3 292 291 246
3 296 300 297
3 299 301 300
3 301 217 239
3 300 239 241
3 302 303 301
3 302 290 292
3 303 292 218
3 303 215 217
3 225 305 304
3 230 308 305
3 305 308 290
3 305 302 299
3 6 307 306
3 226 304 307
3 304 299 296
3 307 296 298
3 229 310 308
3 309 311 310
3 311 572 293
3 310 293 290
3 1 313 312
3 313 316 314
3 315 522 316
3 7 315 313
3 317 320 318
3 319 318 312
3 318 12 2
3 320 13 12
3 321 325 322
3 322 324 17
3 322 326 19
3 325 341 326
3 314 331 327
3 319 327 328
3 329 401 328
3 330 329 327
3 332 333 27
3 333 335 30
3 334 404 335
3 336 334 333
3 337 340 338
3 340 343 341
3 342 365 343
3 344 342 340
3 345 348 346
3 347 346 325
3 346 338 341
3 348 339 338
3 46 48 349
3 350 349 348
3 351 339 348
3 51 351 349
3 352 355 353
3 355 358 356
3 357 479 358
3 352 487 357
3 359 360 351
3 360 337 339
3 361 344 337
3 359 367 361
3 343 364 326
3 326 364 362
3 363 504 362
3 365 363 364
3 362 366 68
3 68 366 359
3 366 368 367
3 362 504 368
3 369 372 370
3 372 375 373
3 372 476 374
3 376 476 372
3 377 382 378
3 379 378 380
3 370 373 380
3 382 371 370
3 356 358 383
3 384 383 382
3 383 385 371
3 358 479 385
3 380 387 386
3 387 352 354
3 388 487 352
3 373 388 387
3 350 389 93
3 389 332 29
3 390 336 332
3 345 390 389
3 347 393 390
3 390 393 391
3 392 317 391
3 347 321 392
3 321 323 394
3 392 394 320
3 394 100 13
3 323 17 100
3 395 398 396
3 398 400 399
3 398 329 330
3 401 329 398
3 402 405 334
3 334 405 403
3 405 396 399
3 397 396 405
3 403 407 406
3 407 331 314
3 400 330 331
3 399 400 407
3 408 414 409
3 409 413 411
3 409 415 412
3 414 416 415
3 416 421 417
3 415 417 418
3 417 460 419
3 420 460 417
3 413 423 422
3 423 426 424
3 425 432 426
3 412 425 423
3 426 430 427
3 427 430 428
3 430 446 431
3 432 446 430
3 429 428 433
3 434 433 414
3 433 435 416
3 428 431 435
3 436 442 437
3 437 441 439
3 440 455 441
3 442 454 440
3 418 443 425
3 443 444 432
3 443 445 436
3 418 419 445
3 444 448 446
3 446 448 447
3 438 439 447
3 444 436 438
3 431 447 449
3 435 449 421
3 450 420 421
3 439 450 449
3 451 457 452
3 453 452 440
3 452 585 455
3 456 585 452
3 441 458 450
3 458 459 420
3 458 585 456
3 455 585 458
3 459 462 460
3 460 462 461
3 457 451 461
3 456 457 462
3 419 461 463
3 445 463 442
3 463 453 454
3 451 453 463
3 397 466 464
3 395 464 465
3 464 434 408
3 466 429 434
3 336 468 467
3 402 467 466
3 467 427 429
3 468 424 427
3 469 470 391
3 391 470 468
3 422 424 468
3 411 422 470
3 401 465 471
3 471 469 317
3 410 411 469
3 465 408 410
3 472 478 473
3 473 476 376
3 475 374 476
3 477 475 473
3 479 481 480
3 385 480 369
3 474 376 369
3 472 474 480
3 374 485 482
3 375 482 483
3 482 486 484
3 485 500 486
3 487 489 488
3 357 488 481
3 488 478 472
3 489 477 478
3 486 491 490
3 491 494 492
3 491 495 493
3 486 500 495
3 483 497 388
3 388 497 496
3 497 490 492
3 484 490 497
3 498 499 475
3 475 499 485
3 499 495 500
3 493 495 499
3 496 501 489
3 501 498 477
3 501 494 493
3 492 494 501
3 502 503 363
3 503 505 504
3 386 354 505
3 381 386 503
3 367 508 506
3 361 506 507
3 506 384 377
3 508 356 384
3 344 507 509
3 342 509 502
3 509 379 381
3 507 377 379
3 505 510 368
3 510 508 367
3 353 356 508
3 354 353 510
3 511 514 512
3 514 517 515
3 516 528 517
3 518 516 514
3 316 519 406
3 519 521 404
3 520 525 521
3 522 520 519
3 521 524 335
3 335 524 227
3 523 309 227
3 525 523 524
3 526 529 527
3 527 529 234
3 529 537 236
3 530 537 529
3 240 532 531
3 532 511 513
3 533 518 511
3 244 533 532
3 515 517 534
3 535 534 247
3 534 527 248
3 517 528 527
3 536 538 537
3 538 251 236
3 539 266 251
3 540 539 538
3 541 542 516
3 542 526 528
3 543 530 526
3 544 543 542
3 518 548 545
3 541 545 546
3 545 549 547
3 548 562 549
3 540 553 550
3 550 267 266
3 551 557 267
3 552 551 550
3 554 555 543
3 555 536 530
3 555 553 540
3 552 553 555
3 552 558 556
3 551 556 274
3 556 559 275
3 558 565 559
3 279 561 560
3 561 549 562
3 563 547 549
3 283 563 561
3 284 564 563
3 564 566 547
3 564 559 565
3 284 275 559
3 244 287 567
3 533 567 548
3 567 560 562
3 287 280 560
3 544 546 568
3 554 568 558
3 568 566 565
3 546 547 566
3 569 573 570
3 571 570 294
3 570 535 295
3 573 515 535
3 297 575 574
3 575 577 576
3 531 513 577
3 241 531 575
3 577 579 578
3 578 579 573
3 579 512 515
3 513 512 579
3 580 581 520
3 581 582 525
3 581 578 569
3 576 578 581
3 306 583 315
3 583 580 522
3 574 576 580
3 298 574 583
3 582 584 523
3 584 311 309
3 571 572 311
3 569 571 584
